<svg width="20" height="20" viewBox="0 0 20 20" fill="none" xmlns="http://www.w3.org/2000/svg">
<path d="M16.9195 3.08046C15.9268 2.08633 14.628 1.45568 13.2329 1.29027C11.8377 1.12487 10.4275 1.43436 9.2298 2.1688C8.03212 2.90325 7.11682 4.01981 6.63161 5.3383C6.1464 6.6568 6.11958 8.10032 6.55548 9.43593L2.24141 13.75C2.12483 13.8656 2.03241 14.0033 1.96951 14.155C1.9066 14.3067 1.87448 14.4694 1.87501 14.6336V16.875C1.87501 17.2065 2.0067 17.5245 2.24112 17.7589C2.47554 17.9933 2.79349 18.125 3.12501 18.125H5.62501C5.79077 18.125 5.94974 18.0591 6.06695 17.9419C6.18416 17.8247 6.25001 17.6658 6.25001 17.5V16.25H7.50001C7.66577 16.25 7.82474 16.1841 7.94195 16.0669C8.05916 15.9497 8.12501 15.7908 8.12501 15.625V14.375H9.37501C9.45711 14.3751 9.53842 14.3589 9.61429 14.3276C9.69016 14.2962 9.75911 14.2502 9.81719 14.1922L10.5641 13.4445C11.1892 13.6479 11.8426 13.751 12.5 13.75H12.5078C13.7433 13.7485 14.9507 13.3808 15.9773 12.6935C17.004 12.0061 17.8039 11.0299 18.276 9.88819C18.7481 8.74644 18.8712 7.49039 18.6298 6.2787C18.3883 5.06702 17.7932 3.95407 16.9195 3.08046ZM17.5 7.66406C17.4149 10.3273 15.1758 12.4969 12.5086 12.5H12.5C11.8673 12.5011 11.2402 12.3815 10.6524 12.1476C10.5374 12.0977 10.41 12.0836 10.2868 12.107C10.1637 12.1304 10.0504 12.1903 9.96173 12.2789L9.11641 13.125H7.50001C7.33425 13.125 7.17528 13.1908 7.05807 13.3081C6.94086 13.4253 6.87501 13.5842 6.87501 13.75V15H5.62501C5.45925 15 5.30028 15.0658 5.18306 15.1831C5.06585 15.3003 5.00001 15.4592 5.00001 15.625V16.875H3.12501V14.6336L7.7211 10.0383C7.80972 9.9496 7.86962 9.83632 7.89303 9.71316C7.91643 9.59 7.90226 9.46265 7.85235 9.34765C7.61778 8.7578 7.49818 8.12852 7.50001 7.49374C7.50001 4.82656 9.67266 2.58749 12.3359 2.50234C13.0201 2.47951 13.7016 2.59739 14.3383 2.84868C14.975 3.09997 15.5533 3.47931 16.0374 3.96322C16.5216 4.44712 16.9012 5.02528 17.1528 5.66187C17.4043 6.29846 17.5225 6.97993 17.5 7.66406ZM15 5.93749C15 6.12291 14.945 6.30417 14.842 6.45834C14.739 6.61251 14.5926 6.73267 14.4213 6.80363C14.25 6.87459 14.0615 6.89315 13.8796 6.85698C13.6978 6.82081 13.5307 6.73152 13.3996 6.60041C13.2685 6.46929 13.1792 6.30225 13.143 6.12039C13.1068 5.93853 13.1254 5.75003 13.1964 5.57873C13.2673 5.40742 13.3875 5.261 13.5417 5.15799C13.6958 5.05498 13.8771 4.99999 14.0625 4.99999C14.3111 4.99999 14.5496 5.09877 14.7254 5.27458C14.9012 5.4504 15 5.68885 15 5.93749Z" fill="#F85C39" fill-opacity="0.7"/>
</svg>
