<svg width="72" height="72" viewBox="0 0 72 72" fill="none" xmlns="http://www.w3.org/2000/svg">
<path d="M26.9999 33.75C24.7749 33.75 22.5998 34.4098 20.7497 35.646C18.8997 36.8822 17.4578 38.6392 16.6063 40.6948C15.7548 42.7505 15.532 45.0125 15.9661 47.1948C16.4002 49.3771 17.4716 51.3816 19.045 52.955C20.6183 54.5283 22.6229 55.5998 24.8051 56.0339C26.9874 56.468 29.2494 56.2452 31.3051 55.3937C33.3608 54.5422 35.1178 53.1003 36.3539 51.2502C37.5901 49.4002 38.2499 47.2251 38.2499 45C38.2499 42.0163 37.0646 39.1549 34.9549 37.0451C32.8451 34.9353 29.9836 33.75 26.9999 33.75ZM26.9999 51.75C25.6649 51.75 24.3598 51.3542 23.2498 50.6125C22.1398 49.8708 21.2746 48.8166 20.7637 47.5831C20.2528 46.3498 20.1192 44.9925 20.3796 43.6832C20.6401 42.3738 21.2829 41.1711 22.2269 40.2271C23.1709 39.2831 24.3737 38.6402 25.6831 38.3797C26.9924 38.1193 28.3496 38.253 29.583 38.7638C30.8164 39.2747 31.8706 40.1399 32.6123 41.2499C33.354 42.36 33.7499 43.665 33.7499 45C33.7499 46.7902 33.0388 48.5071 31.7729 49.773C30.507 51.0389 28.7901 51.75 26.9999 51.75ZM62.3418 34.4082C62.551 34.6171 62.7169 34.8653 62.8302 35.1384C62.9434 35.4116 63.0017 35.7043 63.0017 36C63.0017 36.2957 62.9434 36.5885 62.8302 36.8616C62.7169 37.1348 62.551 37.3829 62.3418 37.5919L48.8418 51.0919C48.4196 51.5141 47.847 51.7513 47.2499 51.7513C46.6528 51.7513 46.0802 51.5141 45.658 51.0919C45.2358 50.6697 44.9987 50.0971 44.9987 49.5C44.9987 48.903 45.2358 48.3304 45.658 47.9082L59.158 34.4082C59.367 34.199 59.6152 34.033 59.8883 33.9198C60.1614 33.8065 60.4542 33.7483 60.7499 33.7483C61.0456 33.7483 61.3384 33.8065 61.6115 33.9198C61.8847 34.033 62.1328 34.199 62.3418 34.4082ZM44.9999 38.25C44.5546 38.2504 44.1193 38.1186 43.749 37.8714C43.3786 37.6242 43.09 37.2727 42.9195 36.8613C42.7491 36.45 42.7045 35.9973 42.7915 35.5606C42.8784 35.1239 43.093 34.7228 43.408 34.4082L50.158 27.6582C50.3671 27.4491 50.6153 27.2833 50.8884 27.1701C51.1615 27.057 51.4543 26.9988 51.7499 26.9988C52.0456 26.9988 52.3383 27.057 52.6114 27.1701C52.8846 27.2833 53.1327 27.4491 53.3418 27.6582C53.5508 27.8672 53.7167 28.1154 53.8298 28.3885C53.9429 28.6616 54.0012 28.9544 54.0012 29.25C54.0012 29.5457 53.9429 29.8384 53.8298 30.1115C53.7167 30.3847 53.5508 30.6329 53.3418 30.8419L46.5918 37.5919C46.3827 37.8008 46.1345 37.9664 45.8613 38.0793C45.5882 38.1923 45.2955 38.2503 44.9999 38.25ZM64.5918 19.5919L60.0918 24.0919C59.6696 24.5141 59.097 24.7513 58.4999 24.7513C57.9028 24.7513 57.3302 24.5141 56.908 24.0919C56.4858 23.6697 56.2487 23.0971 56.2487 22.5C56.2487 21.903 56.4858 21.3303 56.908 20.9082L61.408 16.4082C61.6171 16.1991 61.8653 16.0333 62.1384 15.9201C62.4115 15.807 62.7043 15.7488 62.9999 15.7488C63.2956 15.7488 63.5883 15.807 63.8614 15.9201C64.1346 16.0333 64.3827 16.1991 64.5918 16.4082C64.8008 16.6172 64.9667 16.8654 65.0798 17.1385C65.1929 17.4116 65.2512 17.7044 65.2512 18C65.2512 18.2957 65.1929 18.5884 65.0798 18.8615C64.9667 19.1347 64.8008 19.3829 64.5918 19.5919ZM34.408 25.4082L54.658 5.15816C54.8671 4.94911 55.1153 4.78328 55.3884 4.67015C55.6615 4.55701 55.9543 4.49878 56.2499 4.49878C56.5456 4.49878 56.8383 4.55701 57.1114 4.67015C57.3846 4.78328 57.6327 4.94911 57.8418 5.15816C58.0508 5.3672 58.2167 5.61538 58.3298 5.88851C58.4429 6.16165 58.5012 6.45439 58.5012 6.75003C58.5012 7.04567 58.4429 7.33841 58.3298 7.61155C58.2167 7.88468 58.0508 8.13286 57.8418 8.34191L37.5918 28.5919C37.1696 29.0141 36.597 29.2513 35.9999 29.2513C35.4028 29.2513 34.8302 29.0141 34.408 28.5919C33.9858 28.1697 33.7487 27.5971 33.7487 27C33.7487 26.403 33.9858 25.8303 34.408 25.4082ZM41.3184 56.1375C41.74 56.5595 41.9768 57.1315 41.9768 57.728C41.9768 58.3245 41.74 58.8966 41.3184 59.3185C39.4436 61.224 37.2101 62.7395 34.7468 63.7775C32.2834 64.8156 29.6389 65.3556 26.9658 65.3665C24.2926 65.3774 21.6438 64.8589 19.1721 63.8409C16.7003 62.823 14.4546 61.3258 12.5644 59.4356C10.6742 57.5454 9.17694 55.2996 8.159 52.8279C7.14106 50.3561 6.62258 47.7073 6.63347 45.0342C6.64435 42.3611 7.18439 39.7165 8.22242 37.2532C9.26045 34.7898 10.7759 32.5563 12.6815 30.6816L35.9521 7.40816C36.1611 7.19911 36.4093 7.03328 36.6825 6.92015C36.9556 6.80701 37.2483 6.74878 37.544 6.74878C37.8396 6.74878 38.1324 6.80701 38.4055 6.92015C38.6786 7.03328 38.9268 7.19911 39.1358 7.40816C39.3449 7.6172 39.5107 7.86538 39.6239 8.13851C39.737 8.41165 39.7952 8.70439 39.7952 9.00003C39.7952 9.29567 39.737 9.58841 39.6239 9.86155C39.5107 10.1347 39.3449 10.3829 39.1358 10.5919L15.8624 33.8625C12.9086 36.8164 11.2491 40.8227 11.2491 45C11.2491 49.1774 12.9086 53.1837 15.8624 56.1375C18.8163 59.0914 22.8225 60.7508 26.9999 60.7508C31.1773 60.7508 35.1836 59.0914 38.1374 56.1375C38.5593 55.7159 39.1314 55.479 39.7279 55.479C40.3244 55.479 40.8964 55.7159 41.3184 56.1375Z" fill="#FF2600" fill-opacity="0.75"/>
</svg>
